<svg  aria-label="Theme icon" class="profileSvgs" color="#262626" fill="#262626" height="16" role="img" viewBox="0 0 16 16" width="16"><path d="M8.05 16C3.61 16 0 12.39 0 7.95 0 3.99 2.83.65 6.72 0c.49-.03.87.22.99.6.11.38-.05.78-.41 1-1.7.93-2.75 2.69-2.75 4.61 0 2.89 2.35 5.25 5.25 5.25a5.25 5.25 0 0 0 4.61-2.74c.19-.37.61-.54 1.01-.4.42.14.66.56.58 1.01A8.044 8.044 0 0 1 8.05 16zM5.8 1.32c-2.78.93-4.73 3.56-4.73 6.63 0 3.85 3.13 6.99 6.99 6.99 3.04 0 5.66-1.93 6.61-4.72a6.301 6.301 0 0 1-4.87 2.31c-3.48 0-6.31-2.83-6.31-6.31-.01-1.93.86-3.71 2.31-4.9zm9.54 7.89s0 .01 0 0c0 .01 0 0 0 0z" fill="currentColor"></path></svg>